<?xml version="1.0" encoding="UTF-8"?>
<svg xmlns="http://www.w3.org/2000/svg" xmlns:xlink="http://www.w3.org/1999/xlink" width="60pt" height="60pt" viewBox="0 0 60 60" version="1.1">
<g id="surface1">
<path style=" stroke:none;fill-rule:nonzero;fill:rgb(0%,0%,0%);fill-opacity:1;" d="M 23.09375 23.203125 C 22.59375 22.652344 21.875 22.328125 21.128906 22.316406 C 19.632812 22.296875 18.390625 23.496094 18.363281 24.992188 C 18.355469 25.476562 18.742188 25.875 19.222656 25.882812 C 19.230469 25.882812 19.234375 25.882812 19.238281 25.882812 C 19.714844 25.882812 20.105469 25.5 20.113281 25.023438 C 20.121094 24.488281 20.5625 24.058594 21.105469 24.066406 C 21.375 24.070312 21.621094 24.179688 21.804688 24.382812 C 22.128906 24.738281 22.683594 24.765625 23.039062 24.4375 C 23.394531 24.113281 23.421875 23.558594 23.09375 23.203125 Z M 23.09375 23.203125 "/>
<path style=" stroke:none;fill-rule:nonzero;fill:rgb(0%,0%,0%);fill-opacity:1;" d="M 27.75 26.054688 C 27.484375 25.421875 26.960938 24.925781 26.316406 24.6875 C 25.027344 24.210938 23.585938 24.875 23.109375 26.164062 C 22.941406 26.617188 23.171875 27.121094 23.625 27.289062 C 23.726562 27.328125 23.828125 27.34375 23.925781 27.34375 C 24.28125 27.34375 24.617188 27.125 24.75 26.773438 C 24.890625 26.386719 25.324219 26.1875 25.714844 26.332031 C 25.910156 26.402344 26.058594 26.546875 26.140625 26.738281 C 26.332031 27.183594 26.84375 27.390625 27.289062 27.203125 C 27.734375 27.011719 27.941406 26.496094 27.75 26.054688 Z M 27.75 26.054688 "/>
<path style=" stroke:none;fill-rule:nonzero;fill:rgb(0%,0%,0%);fill-opacity:1;" d="M 33.390625 18.304688 C 33.046875 17.960938 32.496094 17.960938 32.152344 18.304688 L 31.328125 19.132812 C 30.988281 19.472656 30.988281 20.027344 31.328125 20.367188 C 31.5 20.539062 31.722656 20.625 31.949219 20.625 C 32.171875 20.625 32.398438 20.539062 32.570312 20.367188 L 33.394531 19.539062 C 33.734375 19.199219 33.734375 18.644531 33.390625 18.304688 Z M 33.390625 18.304688 "/>
<path style=" stroke:none;fill-rule:nonzero;fill:rgb(0%,0%,0%);fill-opacity:1;" d="M 27.945312 29.601562 L 26.78125 29.601562 C 26.296875 29.601562 25.90625 29.992188 25.90625 30.472656 C 25.90625 30.957031 26.296875 31.351562 26.78125 31.351562 L 27.945312 31.351562 C 28.429688 31.351562 28.824219 30.957031 28.824219 30.472656 C 28.824219 29.992188 28.429688 29.601562 27.945312 29.601562 Z M 27.945312 29.601562 "/>
<path style=" stroke:none;fill-rule:nonzero;fill:rgb(0%,0%,0%);fill-opacity:1;" d="M 36.886719 29.601562 L 35.722656 29.601562 C 35.238281 29.601562 34.847656 29.992188 34.847656 30.472656 C 34.847656 30.957031 35.238281 31.351562 35.722656 31.351562 L 36.886719 31.351562 C 37.371094 31.351562 37.765625 30.957031 37.765625 30.472656 C 37.765625 29.992188 37.371094 29.601562 36.886719 29.601562 Z M 36.886719 29.601562 "/>
<path style=" stroke:none;fill-rule:nonzero;fill:rgb(0%,0%,0%);fill-opacity:1;" d="M 59.707031 45.375 L 59.476562 44.148438 C 59.332031 43.363281 58.648438 42.792969 57.847656 42.792969 C 57.746094 42.792969 57.644531 42.800781 57.546875 42.816406 L 52.90625 43.671875 L 55.007812 42.265625 C 55.558594 41.898438 55.835938 41.242188 55.714844 40.585938 C 55.683594 40.410156 55.621094 40.238281 55.527344 40.078125 L 54.894531 38.949219 C 54.675781 38.5625 54.304688 38.273438 53.875 38.160156 C 53.664062 38.105469 53.449219 38.09375 53.230469 38.121094 C 53.464844 36.832031 53.585938 35.511719 53.585938 34.171875 C 53.585938 33.574219 53.230469 33.0625 52.714844 32.832031 C 53.386719 31.242188 53.433594 29.425781 52.769531 27.757812 C 52.714844 27.621094 52.636719 27.5 52.535156 27.394531 C 52.429688 27.296875 52.3125 27.214844 52.175781 27.160156 C 51.382812 26.847656 50.554688 26.6875 49.703125 26.6875 C 49.59375 26.6875 49.484375 26.6875 49.378906 26.695312 C 49.257812 24.25 47.234375 22.300781 44.769531 22.300781 C 44.441406 22.300781 44.125 22.339844 43.820312 22.402344 C 44.035156 21.128906 43.910156 19.800781 43.414062 18.550781 C 43.359375 18.414062 43.277344 18.289062 43.171875 18.179688 C 43.066406 18.074219 42.945312 17.996094 42.808594 17.941406 C 41.953125 17.601562 41.058594 17.429688 40.144531 17.429688 C 38.765625 17.429688 37.445312 17.816406 36.308594 18.539062 C 35.890625 17.332031 35.207031 16.203125 34.25 15.238281 C 33.964844 14.960938 33.59375 14.804688 33.195312 14.804688 C 32.800781 14.804688 32.425781 14.960938 32.144531 15.238281 L 27.90625 19.484375 C 27.125 18.785156 26.09375 18.367188 24.972656 18.367188 C 24.71875 18.367188 24.460938 18.390625 24.210938 18.4375 C 23.296875 18.59375 22.457031 19.039062 21.816406 19.695312 C 20.988281 19.296875 20.042969 19.160156 19.132812 19.316406 C 18.933594 19.355469 18.738281 19.402344 18.550781 19.464844 L 18.550781 16.191406 C 18.550781 13.9375 16.742188 12.101562 14.5 12.0625 L 14.5 10.207031 C 15.183594 10.089844 15.707031 9.488281 15.707031 8.769531 L 15.707031 4.566406 C 15.707031 3.761719 15.054688 3.109375 14.25 3.109375 L 7.136719 3.109375 C 6.332031 3.109375 5.675781 3.761719 5.675781 4.566406 L 5.675781 8.769531 C 5.675781 9.488281 6.199219 10.089844 6.886719 10.207031 L 6.886719 12.0625 C 4.644531 12.101562 2.832031 13.933594 2.832031 16.191406 L 2.832031 41.730469 C 1.085938 43.304688 0 45.507812 0 47.941406 C 0 52.730469 4.203125 56.625 9.371094 56.625 L 44.390625 56.617188 C 45.585938 56.617188 46.710938 56.09375 47.476562 55.175781 C 48.21875 54.285156 48.535156 53.125 48.355469 51.984375 L 55.351562 53.242188 C 55.445312 53.261719 55.542969 53.269531 55.644531 53.269531 C 55.992188 53.269531 56.328125 53.164062 56.609375 52.960938 C 56.972656 52.699219 57.21875 52.296875 57.285156 51.855469 L 57.476562 50.585938 C 57.503906 50.402344 57.5 50.21875 57.464844 50.039062 C 57.347656 49.390625 56.851562 48.875 56.207031 48.726562 L 53.742188 48.160156 L 58.375 47.308594 C 58.8125 47.226562 59.191406 46.980469 59.441406 46.617188 C 59.691406 46.253906 59.785156 45.8125 59.707031 45.375 Z M 49.703125 28.4375 C 50.230469 28.4375 50.75 28.519531 51.246094 28.683594 C 51.691406 30.039062 51.523438 31.5 50.828125 32.707031 L 48.46875 32.707031 L 49.222656 31.953125 C 49.5625 31.613281 49.5625 31.058594 49.222656 30.71875 C 48.878906 30.375 48.324219 30.375 47.984375 30.71875 L 47.585938 31.117188 C 47.398438 30.503906 47.070312 29.953125 46.644531 29.5 C 47.511719 28.8125 48.582031 28.4375 49.703125 28.4375 Z M 44.769531 24.050781 C 46.347656 24.050781 47.632812 25.339844 47.632812 26.925781 C 47.632812 26.957031 47.632812 26.984375 47.632812 27.015625 C 46.710938 27.3125 45.859375 27.816406 45.136719 28.496094 C 45.019531 28.453125 44.902344 28.410156 44.78125 28.378906 C 44.527344 26.996094 43.59375 25.886719 42.363281 25.367188 C 42.875 24.578125 43.761719 24.050781 44.769531 24.050781 Z M 40.144531 19.179688 C 40.738281 19.179688 41.320312 19.273438 41.882812 19.464844 C 42.335938 20.808594 42.246094 22.253906 41.667969 23.503906 C 41.195312 23.9375 40.8125 24.464844 40.546875 25.058594 C 40.390625 25.066406 40.234375 25.085938 40.078125 25.113281 C 39.394531 25.230469 38.753906 25.53125 38.222656 25.960938 C 38.035156 25.628906 37.8125 25.320312 37.558594 25.042969 L 39.5625 23.03125 C 39.90625 22.6875 39.90625 22.136719 39.5625 21.792969 C 39.222656 21.453125 38.667969 21.453125 38.328125 21.796875 L 36.132812 23.992188 C 35.714844 23.796875 35.265625 23.65625 34.789062 23.59375 C 34.996094 22.550781 35.5 21.566406 36.285156 20.78125 C 37.316406 19.75 38.6875 19.179688 40.144531 19.179688 Z M 33.4375 32.707031 L 32.679688 32.707031 C 32.554688 32.382812 32.238281 32.152344 31.867188 32.152344 C 31.496094 32.152344 31.179688 32.382812 31.050781 32.707031 L 30.160156 32.707031 C 30.367188 32.371094 30.324219 31.921875 30.03125 31.628906 C 29.691406 31.289062 29.136719 31.289062 28.792969 31.632812 L 27.96875 32.460938 C 27.898438 32.53125 27.839844 32.617188 27.796875 32.707031 L 26.015625 32.707031 C 25.347656 31.683594 24.941406 30.476562 24.894531 29.175781 L 38.777344 29.175781 C 38.730469 30.476562 38.320312 31.683594 37.652344 32.707031 L 35.800781 32.707031 C 35.757812 32.617188 35.699219 32.53125 35.628906 32.460938 L 34.804688 31.632812 C 34.460938 31.289062 33.90625 31.289062 33.5625 31.628906 C 33.273438 31.921875 33.230469 32.371094 33.4375 32.707031 Z M 31.402344 27.425781 C 31.734375 26.203125 32.847656 25.300781 34.167969 25.300781 C 35.492188 25.300781 36.605469 26.203125 36.933594 27.425781 Z M 33.195312 16.667969 C 34.027344 17.566406 34.574219 18.636719 34.84375 19.757812 C 34.398438 20.242188 34.027344 20.78125 33.734375 21.351562 C 33.601562 21.265625 33.445312 21.222656 33.277344 21.222656 L 32.113281 21.222656 C 31.628906 21.222656 31.238281 21.613281 31.238281 22.097656 C 31.238281 22.578125 31.628906 22.972656 32.113281 22.972656 L 33.136719 22.972656 C 33.078125 23.210938 33.03125 23.457031 33 23.703125 C 32.65625 23.796875 32.324219 23.925781 32.011719 24.089844 C 31.429688 23.082031 30.460938 22.332031 29.316406 22.03125 C 29.316406 22.03125 29.316406 22.027344 29.316406 22.023438 C 29.246094 21.628906 29.128906 21.253906 28.964844 20.90625 Z M 17.375 24.5625 C 17.324219 24.421875 17.285156 24.273438 17.257812 24.125 C 17.007812 22.679688 17.984375 21.296875 19.433594 21.042969 C 19.585938 21.015625 19.742188 21.003906 19.894531 21.003906 C 20.472656 21.003906 21.019531 21.1875 21.488281 21.535156 C 21.679688 21.679688 21.921875 21.738281 22.160156 21.695312 C 22.398438 21.652344 22.609375 21.515625 22.738281 21.316406 C 23.152344 20.695312 23.78125 20.289062 24.511719 20.15625 C 24.664062 20.132812 24.820312 20.117188 24.972656 20.117188 C 26.269531 20.117188 27.371094 21.046875 27.59375 22.324219 C 27.617188 22.46875 27.628906 22.625 27.628906 22.777344 C 27.632812 23.230469 27.976562 23.609375 28.429688 23.648438 C 29.410156 23.734375 30.242188 24.351562 30.625 25.214844 C 30.109375 25.839844 29.75 26.59375 29.617188 27.425781 L 24.625 27.425781 C 24.003906 27.425781 23.472656 27.808594 23.25 28.351562 C 22.152344 27.605469 20.859375 27.203125 19.5 27.203125 C 18.652344 27.203125 17.820312 27.359375 17.027344 27.675781 C 16.894531 27.730469 16.773438 27.808594 16.671875 27.914062 C 16.566406 28.015625 16.488281 28.136719 16.433594 28.269531 C 16.234375 28.777344 16.101562 29.300781 16.027344 29.824219 C 15.714844 29.46875 15.492188 29.023438 15.40625 28.527344 C 15.199219 27.339844 15.824219 26.15625 16.917969 25.652344 C 17.328125 25.460938 17.527344 24.992188 17.375 24.5625 Z M 19.984375 32.46875 L 20.222656 32.707031 L 18.121094 32.707031 C 17.648438 31.613281 17.578125 30.367188 17.960938 29.199219 C 18.460938 29.035156 18.976562 28.953125 19.5 28.953125 C 20.820312 28.953125 22.0625 29.464844 22.996094 30.402344 C 23.117188 30.527344 23.234375 30.65625 23.34375 30.789062 C 23.492188 31.460938 23.71875 32.105469 24.011719 32.707031 L 22.695312 32.707031 L 21.222656 31.230469 C 20.882812 30.890625 20.328125 30.890625 19.984375 31.230469 C 19.640625 31.574219 19.640625 32.125 19.984375 32.46875 Z M 16.257812 32.707031 L 13.136719 32.707031 C 13.277344 31.859375 13.789062 31.136719 14.496094 30.710938 C 14.914062 31.273438 15.460938 31.726562 16.089844 32.035156 C 16.132812 32.261719 16.1875 32.484375 16.257812 32.707031 Z M 7.425781 4.859375 L 13.957031 4.859375 L 13.957031 8.476562 L 7.425781 8.476562 Z M 12.75 10.226562 L 12.75 12.0625 L 8.636719 12.0625 L 8.636719 10.226562 Z M 4.582031 19.738281 L 10.265625 19.738281 C 10.75 19.738281 11.140625 19.347656 11.140625 18.863281 C 11.140625 18.378906 10.75 17.988281 10.265625 17.988281 L 4.582031 17.988281 L 4.582031 16.191406 C 4.582031 14.875 5.648438 13.8125 6.957031 13.8125 L 14.429688 13.8125 C 15.738281 13.8125 16.800781 14.875 16.800781 16.191406 L 16.800781 17.988281 L 15.167969 17.988281 C 14.683594 17.988281 14.289062 18.378906 14.289062 18.863281 C 14.289062 19.347656 14.683594 19.738281 15.167969 19.738281 L 16.800781 19.738281 L 16.800781 20.515625 C 15.796875 21.5 15.277344 22.941406 15.535156 24.421875 C 15.535156 24.425781 15.535156 24.429688 15.535156 24.429688 C 14.132812 25.394531 13.382812 27.105469 13.679688 28.824219 C 13.699219 28.925781 13.71875 29.023438 13.746094 29.125 C 13.308594 29.363281 12.917969 29.675781 12.578125 30.039062 L 4.582031 30.039062 Z M 4.582031 31.789062 L 11.5625 31.789062 C 11.46875 32.082031 11.40625 32.390625 11.371094 32.707031 L 11.226562 32.707031 C 10.417969 32.707031 9.765625 33.363281 9.765625 34.167969 C 9.765625 35.558594 9.894531 36.921875 10.144531 38.257812 C 9.894531 38.234375 9.632812 38.226562 9.371094 38.226562 C 8.316406 38.226562 7.304688 38.394531 6.535156 38.699219 C 5.351562 39.164062 5.027344 39.828125 4.953125 40.285156 C 4.832031 40.347656 4.707031 40.414062 4.582031 40.480469 Z M 15.664062 42.539062 C 15.980469 42.789062 16.171875 43.003906 16.285156 43.160156 C 16.273438 43.160156 16.261719 43.160156 16.25 43.160156 C 15.753906 43.160156 14.867188 42.960938 13.855469 42.398438 C 13.480469 42.191406 13.132812 41.953125 12.851562 41.71875 C 12.523438 41.441406 12.046875 41.441406 11.71875 41.71875 C 11.4375 41.957031 11.089844 42.191406 10.714844 42.398438 C 9.703125 42.960938 8.816406 43.160156 8.320312 43.160156 C 8.308594 43.160156 8.296875 43.160156 8.285156 43.160156 C 8.398438 43.003906 8.589844 42.789062 8.90625 42.539062 C 9.179688 42.316406 9.296875 41.953125 9.203125 41.613281 C 9.101562 41.273438 8.8125 41.027344 8.460938 40.984375 C 7.605469 40.886719 7.066406 40.667969 6.8125 40.511719 C 7.128906 40.3125 7.929688 39.976562 9.371094 39.976562 C 10.566406 39.976562 11.4375 40.226562 11.855469 40.464844 C 12.125 40.609375 12.449219 40.609375 12.714844 40.464844 C 13.132812 40.226562 14.003906 39.976562 15.199219 39.976562 C 16.640625 39.976562 17.441406 40.3125 17.757812 40.511719 C 17.503906 40.667969 16.964844 40.886719 16.109375 40.988281 C 15.757812 41.027344 15.46875 41.273438 15.371094 41.613281 C 15.273438 41.953125 15.390625 42.316406 15.664062 42.539062 Z M 13.914062 53.1875 L 13.941406 53.351562 C 14.050781 53.910156 14.265625 54.425781 14.574219 54.875 L 9.371094 54.875 C 5.167969 54.875 1.75 51.765625 1.75 47.941406 C 1.75 45.328125 3.347656 43.046875 5.699219 41.867188 C 5.96875 42.066406 6.304688 42.242188 6.703125 42.382812 C 6.546875 42.652344 6.433594 42.945312 6.410156 43.246094 C 6.375 43.652344 6.5 44.035156 6.757812 44.328125 C 7.101562 44.710938 7.625 44.910156 8.320312 44.910156 C 9.242188 44.910156 10.457031 44.542969 11.5625 43.929688 C 11.820312 43.789062 12.058594 43.640625 12.285156 43.484375 C 12.511719 43.640625 12.75 43.789062 13.007812 43.929688 C 14.113281 44.542969 15.328125 44.910156 16.25 44.910156 C 16.945312 44.910156 17.46875 44.710938 17.8125 44.328125 C 18.070312 44.035156 18.195312 43.652344 18.160156 43.246094 C 18.136719 42.945312 18.023438 42.652344 17.867188 42.382812 C 18.265625 42.242188 18.601562 42.066406 18.871094 41.867188 C 20.734375 42.804688 22.125 44.433594 22.625 46.371094 L 16.433594 48.722656 C 14.621094 49.40625 13.5625 51.289062 13.914062 53.1875 Z M 46.132812 54.054688 C 45.699219 54.570312 45.066406 54.867188 44.390625 54.867188 L 43.472656 54.867188 L 42.898438 51.769531 C 42.808594 51.292969 42.351562 50.980469 41.878906 51.066406 C 41.40625 51.15625 41.089844 51.613281 41.179688 52.085938 L 41.691406 54.867188 L 38.683594 54.867188 L 38.292969 52.773438 C 38.207031 52.296875 37.75 51.984375 37.273438 52.074219 C 36.800781 52.160156 36.484375 52.617188 36.574219 53.09375 L 36.902344 54.867188 L 29.898438 54.871094 L 29.371094 52.027344 C 29.285156 51.550781 28.828125 51.238281 28.351562 51.328125 C 27.875 51.414062 27.5625 51.871094 27.652344 52.34375 L 28.121094 54.875 L 17.894531 54.875 C 16.800781 54.875 15.863281 54.101562 15.664062 53.03125 L 15.632812 52.871094 C 15.4375 51.800781 16.03125 50.742188 17.054688 50.355469 L 20.496094 49.050781 L 20.75 50.433594 C 20.828125 50.855469 21.195312 51.148438 21.609375 51.148438 C 21.660156 51.148438 21.714844 51.140625 21.769531 51.132812 C 22.246094 51.046875 22.558594 50.589844 22.46875 50.113281 L 22.15625 48.417969 L 27.261719 46.476562 C 27.710938 46.308594 27.941406 45.800781 27.765625 45.351562 C 27.597656 44.898438 27.089844 44.671875 26.640625 44.84375 L 24.265625 45.746094 C 23.597656 43.386719 21.886719 41.414062 19.617188 40.285156 C 19.542969 39.828125 19.214844 39.164062 18.035156 38.699219 C 17.265625 38.394531 16.257812 38.226562 15.199219 38.226562 C 14.46875 38.226562 13.773438 38.304688 13.160156 38.453125 L 13.160156 37.925781 C 13.160156 37.441406 12.769531 37.050781 12.285156 37.050781 C 12.082031 37.050781 11.890625 37.117188 11.746094 37.238281 C 11.605469 36.324219 11.53125 35.398438 11.515625 34.457031 L 40.015625 34.457031 C 40.5 34.457031 40.890625 34.066406 40.890625 33.582031 C 40.890625 33.101562 40.5 32.707031 40.015625 32.707031 L 39.660156 32.707031 C 40.21875 31.558594 40.53125 30.273438 40.53125 28.914062 C 40.53125 28.140625 39.941406 27.503906 39.1875 27.433594 C 39.515625 27.125 39.925781 26.917969 40.378906 26.835938 C 40.515625 26.8125 40.648438 26.804688 40.78125 26.804688 C 41.914062 26.804688 42.871094 27.609375 43.066406 28.722656 C 43.085938 28.851562 43.101562 28.984375 43.101562 29.117188 C 43.101562 29.570312 43.449219 29.949219 43.898438 29.988281 C 44.945312 30.078125 45.800781 30.867188 45.976562 31.902344 C 46.027344 32.175781 46.019531 32.445312 45.972656 32.707031 L 45.035156 32.707031 C 44.550781 32.707031 44.15625 33.101562 44.15625 33.582031 C 44.15625 34.066406 44.550781 34.457031 45.035156 34.457031 L 51.835938 34.457031 C 51.8125 36.0625 51.605469 37.628906 51.21875 39.152344 L 46.476562 41.953125 C 46.1875 40.941406 45.515625 40.085938 44.585938 39.566406 C 43.542969 38.984375 42.308594 38.890625 41.1875 39.316406 L 31.421875 43.023438 C 30.972656 43.199219 30.742188 43.703125 30.914062 44.15625 C 31.089844 44.605469 31.59375 44.835938 32.046875 44.660156 L 33.332031 44.171875 L 33.730469 46.332031 C 33.808594 46.75 34.175781 47.046875 34.589844 47.046875 C 34.644531 47.046875 34.699219 47.039062 34.75 47.03125 C 35.226562 46.941406 35.539062 46.484375 35.453125 46.011719 L 34.992188 43.539062 L 41.8125 40.949219 C 42.441406 40.710938 43.140625 40.765625 43.730469 41.09375 C 44.320312 41.421875 44.726562 41.988281 44.847656 42.648438 L 46.617188 52.207031 C 46.738281 52.863281 46.5625 53.539062 46.132812 54.054688 Z M 49.253906 47.203125 C 48.84375 47.28125 48.546875 47.628906 48.539062 48.046875 C 48.527344 48.460938 48.8125 48.824219 49.214844 48.917969 L 55.730469 50.410156 L 55.566406 51.503906 L 48.015625 50.148438 L 46.835938 43.773438 L 53.414062 39.890625 L 53.964844 40.859375 L 48.414062 44.566406 C 48.070312 44.796875 47.933594 45.242188 48.089844 45.625 C 48.246094 46.007812 48.652344 46.230469 49.058594 46.15625 L 57.773438 44.554688 L 57.96875 45.605469 Z M 49.253906 47.203125 "/>
</g>
</svg>
